<?xml version="1.0" standalone="no"?>
<!DOCTYPE svg PUBLIC "-//W3C//DTD SVG 20010904//EN"
 "http://www.w3.org/TR/2001/REC-SVG-20010904/DTD/svg10.dtd">
<svg version="1.0" xmlns="http://www.w3.org/2000/svg"
 width="1920.000000pt" height="908.000000pt" viewBox="0 0 1920.000000 908.000000"
 preserveAspectRatio="xMidYMid meet">
<metadata>
Created by potrace 1.13, written by Peter Selinger 2001-2015
</metadata>
<g transform="translate(0.000000,908.000000) scale(0.100000,-0.100000)"
fill="#000000" stroke="none">
<path d="M9304 6749 c-26 -13 -54 -60 -54 -91 0 -30 34 -85 57 -92 18 -6 18
-12 4 -156 -12 -127 -17 -151 -32 -155 -29 -10 -78 -72 -85 -110 -11 -59 4
-105 47 -148 l39 -39 0 -257 0 -257 -154 -17 c-894 -98 -1621 -730 -1842
-1603 -272 -1075 344 -2193 1400 -2539 228 -75 420 -105 668 -105 334 0 626
66 923 209 224 107 381 218 563 395 185 181 309 350 422 581 152 309 220 599
220 943 0 248 -30 440 -105 668 -264 806 -986 1378 -1837 1455 l-128 12 0 255
0 255 44 41 c49 45 63 89 51 153 -6 35 -49 88 -87 109 -23 12 -56 296 -36 303
7 2 25 17 40 32 30 29 38 82 18 120 -22 40 -91 59 -136 38z m254 -1460 c358
-39 707 -175 992 -388 96 -71 274 -244 353 -341 368 -456 518 -1059 406 -1638
-69 -356 -260 -727 -508 -985 -49 -51 -61 -57 -61 -29 0 34 -50 123 -96 172
-84 90 -250 185 -419 240 -38 12 -73 25 -77 29 -4 3 8 30 27 60 67 105 101
261 85 386 -5 38 -7 72 -5 74 8 8 77 -74 118 -141 99 -161 134 -68 108 283 -7
85 -15 172 -18 194 l-6 40 44 -42 c73 -68 118 -94 142 -82 19 11 20 18 14 118
-36 612 -347 1055 -872 1240 -99 36 -241 71 -282 71 l-26 0 21 -23 c57 -61 65
-148 27 -281 -56 -193 -70 -324 -55 -506 20 -231 74 -406 167 -543 85 -123
106 -177 111 -278 7 -147 -39 -253 -141 -323 -69 -48 -132 -66 -238 -71 -193
-9 -342 74 -401 224 -17 43 -22 76 -21 146 0 111 21 170 100 286 70 102 106
183 137 301 36 140 49 271 43 427 -5 145 -14 200 -53 326 -28 88 -34 197 -14
236 7 13 26 39 44 57 31 33 31 33 6 28 -14 -3 -63 -13 -110 -22 -46 -9 -130
-32 -185 -51 -516 -179 -817 -588 -876 -1190 -15 -145 -10 -173 30 -173 21 0
46 17 96 62 l68 63 -6 -55 c-16 -134 -28 -381 -22 -447 11 -120 46 -123 118
-10 25 39 61 86 79 104 l33 32 0 -137 c1 -156 15 -213 85 -328 34 -57 37 -66
22 -71 -223 -79 -357 -157 -454 -262 -55 -59 -98 -144 -98 -194 0 -18 -10 -12
-61 38 -252 247 -455 627 -528 990 -81 400 -38 817 122 1187 290 674 912 1125
1657 1201 80 8 287 6 378 -4z m-580 -1466 c28 -76 50 -139 48 -140 -2 -2 -90
47 -195 108 -106 61 -189 114 -186 118 6 5 226 47 266 50 11 1 30 -36 67 -136z
m931 112 c79 -13 145 -26 147 -28 3 -2 -84 -55 -191 -117 -108 -61 -197 -111
-199 -109 -1 2 20 66 48 141 28 76 51 138 51 138 0 0 65 -11 144 -25z m268
-1696 c441 -156 579 -400 349 -617 -188 -178 -594 -295 -1071 -309 -328 -10
-613 27 -871 112 -167 55 -277 112 -360 189 -93 84 -119 133 -119 221 1 83 15
115 88 192 79 84 199 153 362 210 l70 24 28 -33 c79 -92 211 -314 278 -471 27
-61 54 -114 62 -119 25 -14 49 17 87 113 41 102 40 102 55 -16 9 -76 34 -193
56 -262 32 -99 65 -95 119 17 l34 71 38 -74 c37 -74 55 -91 82 -81 27 10 66
148 91 319 9 60 17 111 19 112 2 2 18 -36 36 -84 36 -96 61 -128 88 -114 10 5
34 50 55 99 67 161 191 374 284 490 19 23 38 42 43 42 5 0 48 -14 97 -31z"/>
<path d="M10000 4809 c-157 -72 -289 -134 -293 -138 -4 -5 139 -92 318 -196
179 -103 328 -185 331 -182 3 3 -6 124 -20 269 -37 376 -37 378 -44 377 -4 0
-135 -59 -292 -130z"/>
<path d="M8360 4914 c0 -9 -14 -154 -30 -322 -17 -168 -29 -306 -27 -308 3 -4
636 361 649 374 7 7 -5 17 -33 30 -24 11 -155 69 -291 131 -136 61 -252 111
-257 111 -6 0 -11 -7 -11 -16z"/>
<path d="M9204 2795 l140 -134 105 99 c59 54 122 114 140 134 l35 36 -280 -1
-279 0 139 -134z"/>
</g>
</svg>
